Exact Audio Copy V0.99 prebeta 3 from 28. July 2007

Отчёт EAC об извлечении, выполненном 26. декабря 2007, 21:53

Aborym / Fire Walk With Us

Дисковод: ASUS    DRW-1608P   Adapter: 2  ID: 0

Режим чтения                 : Достоверность
Использование точного потока : Да
Отключение кэша аудио        : Да
Использование указателей C2  : Нет

Коррекция смещения при чтении                     : 48
Способность читать области Lead-in и Lead-out     : Нет
Заполнение пропущенных сэмплов тишиной            : Да
Удаление блоков с тишиной в начале и конце        : Нет
При вычислениях CRC использовались нулевые сэмплы : Да
Интерфейс                                         : Встроенный Win32-интерфейс для Win NT/2000

Выходной формат          : Пользовательский кодировщик
Выбранный битрейт        : 768 kBit/s
Качество                 : Высокий
Добавление ID3-тэга      : Нет
Утилита сжатия           : C:\Program Files\Exact Audio Copy\FLAC\FLAC.EXE
Дополнительные параметры : -6 -V -T "ARTIST=%a" -T "TITLE=%t" -T "ALBUM=%g" -T "DATE=%y" -T "TRACKNUMBER=%n" -T "GENRE=%m" -T "COMMENT=%e" %s -o %d


TOC извлечённого CD

     Трек |   Старт  | Длительность | Начальный сектор | Конечный сектор 
    ---------------------------------------------------------------------
       1  |  0:00.00 |    6:40.50   |           0      |      30049      
       2  |  6:40.50 |    6:07.40   |       30050      |      57614      
       3  | 12:48.15 |    4:11.62   |       57615      |      76501      
       4  | 17:00.02 |    6:56.63   |       76502      |     107764      
       5  | 23:56.65 |    4:14.05   |      107765      |     126819      
       6  | 28:10.70 |    4:42.35   |      126820      |     148004      
       7  | 32:53.30 |    3:47.50   |      148005      |     165079      
       8  | 36:41.05 |    9:13.65   |      165080      |     206619      
       9  | 45:54.70 |    5:36.12   |      206620      |     231831      


Характеристики диапазона извлечения и сообщения об ошибках

Выбранный диапазон

     Имя файла C:\Music\Aborym\Fire Walk With Us.wav

     Пиковый уровень 100.0 %
     Качество диапазона 100.0 %
     CRC копии 4063F438
     Копирование... OK

Ошибок не произошло

Конец отчёта
